<svg xmlns="http://www.w3.org/2000/svg" viewBox="0 0 128 128" width="128" height="128">
  <defs>
    <linearGradient id="g" x1="0" x2="1" y1="0" y2="1">
      <stop offset="0%" stop-color="#3b82f6"/>
      <stop offset="100%" stop-color="#06b6d4"/>
    </linearGradient>
  </defs>
  <rect x="8" y="8" width="112" height="112" rx="24" fill="url(#g)"/>
  <g fill="#fff">
    <circle cx="64" cy="64" r="22" opacity="0.12"/>
    <path d="M64 34c-2.2 0-4 1.8-4 4v18H42c-2.2 0-4 1.8-4 4s1.8 4 4 4h18v18c0 2.2 1.8 4 4 4s4-1.8 4-4V64h18c2.2 0 4-1.8 4-4s-1.8-4-4-4H68V38c0-2.2-1.8-4-4-4z"/>
  </g>
</svg>
